<svg id="Lager_1" data-name="Lager 1" xmlns="http://www.w3.org/2000/svg" viewBox="0 0 2400 500"><defs><style>.cls-1{fill:#fff;}</style></defs><path class="cls-1" d="M144.6,29.83q.93,3.91,1.49,7.9L145.32,32a82.78,82.78,0,0,1,0,21.39l.77-5.75A86.25,86.25,0,0,1,140.32,69l2.18-5.17a83.35,83.35,0,0,1-10.75,18.49l3.38-4.38a80.71,80.71,0,0,1-6.67,7.52,21.79,21.79,0,0,0-5.56,21c2.09,7.6,7.84,12.66,15.1,15.11a117.35,117.35,0,0,0,23.16,4.85,95.8,95.8,0,0,0,19,.57,120.31,120.31,0,0,0,45.62-12.38L194,90.18A99.82,99.82,0,0,1,189.14,105l2.18-5.16a114.28,114.28,0,0,1-14.7,25l3.39-4.37a137.09,137.09,0,0,1-24.12,24l4.38-3.39c-13.23,10.21-28,18.21-43.32,24.71l5.17-2.18c-2.33,1-4.68,1.93-7,2.85-3.49,1.36-6.85,2.86-9.55,5.56a21.33,21.33,0,0,0-6,12.42,21.94,21.94,0,0,0,10.33,21.56c18.37,9.84,39.27,13.34,60,12.09A272.61,272.61,0,0,0,226.45,208a82.85,82.85,0,0,0,17-6.7,58.6,58.6,0,0,0,9.22-6.59c3-2.47,5.28-5.69,7.62-8.81L222.88,164q-3.81,5.9-8.07,11.44l3.38-4.38a174.88,174.88,0,0,1-31,31l4.37-3.38a180.78,180.78,0,0,1-39.62,23.17l5.17-2.18a174.08,174.08,0,0,1-44.22,12.14l5.75-.78q-5.62.75-11.28,1.11a22.83,22.83,0,0,0-13.11,4.65c-3.57,2.76-6.72,6.7-7.75,11.23a25.71,25.71,0,0,0,0,11.51c1.05,4.59,5.5,11,9.94,12.93,13,5.75,26.25,10.23,40.33,12.52a214,214,0,0,0,42.51,2.84c26.94-1,53.74-6.27,79.67-13.42a113.42,113.42,0,0,0,21.17-7.72c7.65-3.86,15.14-10.46,18.83-18.29l2.18-5.17a16.25,16.25,0,0,0,.39-8.63c-.61-4.54-2.47-9.23-6-12.42-7.12-6.54-17.63-8.35-26.21-3.38a209.53,209.53,0,0,1-22.89,11.42l5.17-2.18a209.78,209.78,0,0,1-52.95,14.52l5.75-.77a208.77,208.77,0,0,1-31.71,1.82L183.61,284a5.81,5.81,0,0,1,1.25-.68l-5.17,2.18a6.58,6.58,0,0,1,1.36-.39l-5.75.77a9.48,9.48,0,0,1,2.13,0l-5.75-.77.69.15-15.11-15.11a216.66,216.66,0,0,1,9.31,40.29l-.77-5.75c4.12,31.12,2.2,62.63-2,93.63l.77-5.75c-2.83,20.91-6.68,41.66-10.62,62.38-1.1,5.8-.88,11.44,2.18,16.67,2.63,4.49,7.77,8.77,12.93,9.95,5.54,1.26,11.76,1,16.67-2.19,4.52-2.91,8.9-7.44,9.94-12.92,5.52-29,10.77-58.09,13.67-87.48,2.86-29.12,2.63-58.19-2.15-87.1a217.07,217.07,0,0,0-4.84-22.13c-1-3.72-2.1-7.47-3.41-11.1-2.32-6.37-6.19-11.34-12.53-14a24.48,24.48,0,0,0-10.09-2.08,28.65,28.65,0,0,0-14.6,4.11,22,22,0,0,0-8.85,10.34c-1.81,4.3-2.57,9.52-1.09,14.09,3,9.21,11,15.69,20.86,15.88a235.14,235.14,0,0,0,48.94-4.48c16.28-3.15,31.78-8.47,47-15a207.51,207.51,0,0,0,22.52-11.27l-29.6-29.6a20,20,0,0,1-2.15,3.58l3.38-4.38a23.75,23.75,0,0,1-3.76,3.74l4.38-3.38a37,37,0,0,1-8,4.51l5.17-2.18c-9.55,4-20,6.19-30,8.56-11,2.6-22.06,4.73-33.23,6.24l5.75-.77c-18.72,2.48-37.72,3.14-56.48.63l5.75.77a147.74,147.74,0,0,1-37.16-10l5.17,2.18-2.11-.91-10.92,40.31a200.09,200.09,0,0,0,36.65-5.7,205.54,205.54,0,0,0,34.65-12.65,194.45,194.45,0,0,0,56.11-39.39,197,197,0,0,0,25.51-31.84c3-4.59,3.6-11.5,2.18-16.67-1.39-5-5.27-10.46-10-12.93-5-2.65-11.1-4-16.66-2.18l-5.17,2.18a21.7,21.7,0,0,0-7.76,7.76l-.4.53,3.38-4.38a26.48,26.48,0,0,1-4.59,4.51l4.38-3.38a38.69,38.69,0,0,1-8,4.44l5.17-2.18c-7.07,2.88-14.66,4.47-22.08,6.16-8.07,1.85-16.2,3.45-24.4,4.57l5.75-.77c-11.46,1.52-23.06,2.07-34.55.56l5.75.78a82.49,82.49,0,0,1-20.82-5.62l5.16,2.18c-2-.87-4-1.82-5.92-2.86l-5.17,39.54c18.92-7.38,37.42-16.1,53.71-28.36,8.53-6.42,16.72-13.16,23.9-21.08a147.29,147.29,0,0,0,18.5-25,123.62,123.62,0,0,0,13-32A21.83,21.83,0,0,0,228,78.94a20.49,20.49,0,0,0-10.23-4.26A22.63,22.63,0,0,0,204,77.25c-1.79.88-3.59,1.71-5.43,2.49l5.17-2.18A95.62,95.62,0,0,1,180,83.94l5.75-.78a96.67,96.67,0,0,1-24.57,0l5.76.77a93.52,93.52,0,0,1-17.41-4.08L159.05,116c25.31-25.19,35.58-63.08,27.27-97.69A22.1,22.1,0,0,0,176.37,5.4c-4.63-2.72-11.47-3.87-16.66-2.18-11.46,3.7-18,14.81-15.11,26.61Z"/><path class="cls-1" d="M333.24,155.46c-.31.78-.63,1.57-1,2.35l1.46-3.44a98.29,98.29,0,0,1-12.43,21.39l2.26-2.92a85.84,85.84,0,0,1-15.27,15.38l2.92-2.26a75,75,0,0,1-9.11,6A14.47,14.47,0,0,0,295,204.42c0,4.73,2.67,10.35,7.15,12.46a127.49,127.49,0,0,0,18.1,7.05,118.75,118.75,0,0,0,19,3.69,108.73,108.73,0,0,0,35-1.64l-16.29-21.19a184.85,184.85,0,0,1-13.87,20.88l2.25-2.92a60.77,60.77,0,0,1-10.45,11.16l2.92-2.26a27.5,27.5,0,0,1-5.84,3.4l3.45-1.46a35.86,35.86,0,0,1-8.34,2.13l3.83-.52c-4.7.62-9.46.75-14.19,1l-15.38.85-30.75,1.71c-5.16.28-9.78,2.57-12.46,7.14-2.38,4.08-3,10.54,0,14.56a62.2,62.2,0,0,0,6.69,8,74.12,74.12,0,0,0,7.94,6.43A97.19,97.19,0,0,0,286,282.18a253.15,253.15,0,0,0,32.23,13.94,272.23,272.23,0,0,0,30.81,9,98.44,98.44,0,0,0,19.46,2.74,65.25,65.25,0,0,0,11.5-1,35.5,35.5,0,0,0,6.26-1.52c12-4.13,22.93-12.66,28-24.55a10.77,10.77,0,0,0,1.71-5.36,10.92,10.92,0,0,0-.26-5.75,15,15,0,0,0-5.17-7.5,14.47,14.47,0,0,0-18.94,1.13,152.79,152.79,0,0,1-13.31,11.59l2.92-2.26A167.13,167.13,0,0,1,344.34,294l3.44-1.45a229.73,229.73,0,0,1-48.43,14c-4.72.86-9.47,1.59-14.22,2.23l3.83-.51a57.32,57.32,0,0,1-14.8.51l3.83.52a26.37,26.37,0,0,1-6.47-1.69l3.44,1.46a19.86,19.86,0,0,1-4-2.34l2.92,2.26a18.35,18.35,0,0,1-3.14-3.15l2.25,2.92a22.09,22.09,0,0,1-1.43-2.18l-16.29,21.19a370.64,370.64,0,0,0,66.06,17.72c12.27,2.09,24.66,3.66,37.08,4.59,5.58.42,11.19.81,16.79.72a65.42,65.42,0,0,0,19.76-3A52.27,52.27,0,0,0,413,337.33a49.49,49.49,0,0,0,6.9-8,47.19,47.19,0,0,0,5.19-10.09l.51-3.83-.51-3.84a14.31,14.31,0,0,0-5.17-7.49,14.56,14.56,0,0,0-16-1.13,124.85,124.85,0,0,1-11.28,5.49l3.44-1.46a116,116,0,0,1-28.8,7.91l3.83-.52a111.86,111.86,0,0,1-29.53,0l3.84.52a112.16,112.16,0,0,1-15.61-3.28,14.11,14.11,0,0,0-12.58,2.58,10.87,10.87,0,0,0-3.71,4.05,14.24,14.24,0,0,0-2,7.28,795.22,795.22,0,0,0-2.26,110.87q.78,15.63,2.17,31.22c.35,3.89,1.38,7.35,4.23,10.2a14.65,14.65,0,0,0,10.2,4.22c3.73-.16,7.6-1.39,10.2-4.22s4.56-6.44,4.22-10.2a796.72,796.72,0,0,1-2.12-110.87q.79-15.63,2.21-31.22l-18.26,13.91a125.15,125.15,0,0,0,75.07-2.13,141.37,141.37,0,0,0,21.27-9.47L397.28,311.6l-.19.45,1.45-3.44a32.56,32.56,0,0,1-4.11,6.93l2.26-2.92a35.06,35.06,0,0,1-5.81,5.74l2.92-2.26a36.44,36.44,0,0,1-7.59,4.42l3.45-1.46a44,44,0,0,1-10.86,2.86l3.83-.52c-7.47,1-15,.47-22.52-.06S345,320,337.52,319l3.84.51A367.5,367.5,0,0,1,280,305.78q-8.59-2.71-17.06-5.85l-3.84-.52-3.83.52a14.32,14.32,0,0,0-7.5,5.17,14.5,14.5,0,0,0-1.12,16,29.64,29.64,0,0,0,6.52,8,36.82,36.82,0,0,0,11.08,6.43c5.17,2,11.11,2.52,16.63,2.32a155.29,155.29,0,0,0,18-2.16c5.41-.83,10.79-1.79,16.14-2.92,22.28-4.71,44.27-12.4,64-23.92a171.07,171.07,0,0,0,33-25.15L389.3,266.25a33.4,33.4,0,0,1-4,7l2.25-2.92a32.6,32.6,0,0,1-5.74,5.76l2.92-2.25a34.92,34.92,0,0,1-7.57,4.41l3.45-1.46a36.82,36.82,0,0,1-8.87,2.38l3.83-.52a53.14,53.14,0,0,1-13.57-.16l3.83.52c-9.21-1.26-18.3-3.85-27.19-6.52a256.08,256.08,0,0,1-25.83-9.26l3.44,1.45c-10-4.26-20.44-9-29.15-15.6l2.92,2.26a43.92,43.92,0,0,1-7.62-7.49l2.26,2.92c-.22-.27-.43-.56-.63-.84l-12.46,21.71,49.51-2.74c4.27-.24,8.49-.52,12.73-1.08a48.28,48.28,0,0,0,14.95-4.4c7.36-3.52,13.06-9.92,18-16.25a206.8,206.8,0,0,0,16.13-23.8,14.5,14.5,0,0,0-1.13-16c-3.69-4.78-9.34-6.34-15.16-5.17-2.16.43-4.34.8-6.53,1.09l3.84-.51a97.59,97.59,0,0,1-25.21,0l3.83.52a101,101,0,0,1-25.12-6.87l3.44,1.46c-1.38-.59-2.76-1.2-4.12-1.85v24.92a91.07,91.07,0,0,0,25.19-21,116,116,0,0,0,10.94-15.3,124.75,124.75,0,0,0,8.26-17.45c1.29-3.27.24-8.22-1.45-11.12a14.74,14.74,0,0,0-8.63-6.63c-3.69-.84-7.83-.66-11.11,1.45L337,149.09a14.42,14.42,0,0,0-3.71,6.37Z"/><path class="cls-1" d="M67.29,236.5c.23.58.46,1.15.7,1.72l-1.06-2.51a71.1,71.1,0,0,0,9,15.58l-1.65-2.12a62.77,62.77,0,0,0,11.13,11.2l-2.13-1.64A56.33,56.33,0,0,0,90,263.1a10.52,10.52,0,0,1,5.2,9.07c0,3.45-1.94,7.54-5.2,9.07a92.35,92.35,0,0,1-13.19,5.14A86.54,86.54,0,0,1,63,289.07a79.29,79.29,0,0,1-25.52-1.2l11.87-15.43a135.13,135.13,0,0,0,10.11,15.21l-1.65-2.13a44.84,44.84,0,0,0,7.62,8.13L63.26,292a20.76,20.76,0,0,0,4.25,2.47L65,293.42A26.48,26.48,0,0,0,71.08,295l-2.8-.38c3.43.45,6.9.55,10.35.74l11.2.62,22.4,1.24a10.79,10.79,0,0,1,9.07,5.2c1.74,3,2.17,7.68,0,10.61a45.05,45.05,0,0,1-4.87,5.8,54.18,54.18,0,0,1-5.79,4.69,71.12,71.12,0,0,1-8.93,5.33A183.78,183.78,0,0,1,78.24,339a197.27,197.27,0,0,1-22.44,6.56,71.56,71.56,0,0,1-14.18,2,47.17,47.17,0,0,1-8.38-.7,26.38,26.38,0,0,1-4.56-1.11c-8.72-3-16.7-9.22-20.37-17.88a7.89,7.89,0,0,1-1.25-3.91,8,8,0,0,1,.19-4.19A10.88,10.88,0,0,1,11,314.26a10.54,10.54,0,0,1,13.79.82,111,111,0,0,0,9.7,8.44l-2.13-1.64A122.42,122.42,0,0,0,59.2,337.41l-2.51-1.06A167.32,167.32,0,0,0,92,346.55c3.44.63,6.89,1.16,10.35,1.63l-2.79-.38a41.93,41.93,0,0,0,10.79.38l-2.8.37a18.87,18.87,0,0,0,4.72-1.23l-2.51,1.06a14.21,14.21,0,0,0,3-1.7l-2.13,1.65a13.84,13.84,0,0,0,2.29-2.3l-1.65,2.13a15.06,15.06,0,0,0,1-1.59L124.12,362A270.75,270.75,0,0,1,76,374.92c-8.94,1.52-18,2.66-27,3.34-4.06.31-8.15.59-12.22.52a47.43,47.43,0,0,1-14.4-2.17A38,38,0,0,1,9.18,369a36.12,36.12,0,0,1-5-5.81,33.83,33.83,0,0,1-3.78-7.35L0,353l.38-2.8a10.34,10.34,0,0,1,3.76-5.45A10.62,10.62,0,0,1,15.81,344,86.56,86.56,0,0,0,24,348l-2.51-1.06a84,84,0,0,0,21,5.76l-2.79-.38a81.53,81.53,0,0,0,21.51,0l-2.79.37A82,82,0,0,0,69.8,350.3,10.23,10.23,0,0,1,79,352.18a8,8,0,0,1,2.7,2.94,10.53,10.53,0,0,1,1.44,5.31,580.56,580.56,0,0,1,1.64,80.76q-.57,11.38-1.58,22.74a11.25,11.25,0,0,1-3.08,7.43,10.5,10.5,0,0,1-14.86,0c-1.79-1.95-3.32-4.69-3.08-7.43a579,579,0,0,0,1.55-80.76q-.59-11.39-1.61-22.74l13.3,10.13A91.2,91.2,0,0,1,20.7,369a102.23,102.23,0,0,1-15.5-6.9l15.44-11.87.14.33-1.06-2.51a24,24,0,0,0,3,5.05L21.07,351a25.35,25.35,0,0,0,4.23,4.18l-2.12-1.65a26.29,26.29,0,0,0,5.52,3.22l-2.51-1.06a32,32,0,0,0,7.91,2.08l-2.79-.38c5.44.7,11,.34,16.41,0s11-1,16.45-1.69l-2.8.38a267.35,267.35,0,0,0,44.73-10q6.27-2,12.43-4.26l2.79-.37,2.8.37a10.36,10.36,0,0,1,5.45,3.77,10.56,10.56,0,0,1,.83,11.67,21.75,21.75,0,0,1-4.75,5.83,26.71,26.71,0,0,1-8.08,4.69,31.08,31.08,0,0,1-12.11,1.69,111,111,0,0,1-13.1-1.58c-3.94-.6-7.86-1.3-11.75-2.13-16.24-3.42-32.26-9-46.61-17.42a124.51,124.51,0,0,1-24-18.32l16.51-12.73a23.51,23.51,0,0,0,2.92,5.08l-1.64-2.12a24.43,24.43,0,0,0,4.18,4.2l-2.13-1.65a25.58,25.58,0,0,0,5.52,3.21l-2.51-1.06a26.26,26.26,0,0,0,6.46,1.73l-2.79-.37a39,39,0,0,0,9.89-.12l-2.8.38a131.29,131.29,0,0,0,19.81-4.75A185.79,185.79,0,0,0,82.19,315l-2.51,1.06c7.31-3.1,14.88-6.52,21.23-11.36l-2.13,1.64a31.81,31.81,0,0,0,5.55-5.45L102.69,303c.16-.2.31-.41.46-.62l9.08,15.82-36.07-2c-3.11-.17-6.19-.37-9.27-.79a34.88,34.88,0,0,1-10.9-3.2c-5.35-2.56-9.5-7.23-13.08-11.84A150.83,150.83,0,0,1,31.16,283,10.57,10.57,0,0,1,32,271.37c2.68-3.48,6.8-4.61,11-3.76,1.58.32,3.16.58,4.75.8L45,268a70.53,70.53,0,0,0,18.36,0l-2.79.38a73.22,73.22,0,0,0,18.31-5l-2.51,1.06c1-.43,2-.88,3-1.34v18.14A65.86,65.86,0,0,1,61,266a85,85,0,0,1-8-11.15,91.14,91.14,0,0,1-6-12.71c-.94-2.38-.17-6,1.06-8.1a10.51,10.51,0,0,1,14.38-3.77l2.13,1.65a10.49,10.49,0,0,1,2.7,4.63Z"/><path class="cls-1" d="M626.8,386q0,24.6-17.71,38.78t-49.28,14.16q-29.09,0-51.45-10.93v-35.8q18.39,8.21,31.13,11.56a92,92,0,0,0,23.3,3.36q12.68,0,19.45-4.85T589,387.84a15.93,15.93,0,0,0-3-9.51,33.22,33.22,0,0,0-8.76-8q-5.78-3.85-23.55-12.31-16.66-7.83-25-15a56.31,56.31,0,0,1-13.3-16.77q-5-9.57-5-22.38,0-24.1,16.34-37.9T572,252.12a106.48,106.48,0,0,1,27,3.36,184.63,184.63,0,0,1,26.91,9.44l-12.43,30a180.6,180.6,0,0,0-24-8.33,77.1,77.1,0,0,0-18.7-2.36q-10.93,0-16.78,5.09a16.79,16.79,0,0,0-5.84,13.3,16.42,16.42,0,0,0,2.36,8.89A25.84,25.84,0,0,0,558,318.8q5.15,3.54,24.42,12.74Q607.9,343.72,617.36,356T626.8,386Z"/><path class="cls-1" d="M689.05,360.87l16.53-21.13,38.9-42.25h42.75l-55.18,60.27,58.54,78.68H746.84l-40-56.3-16.28,13.05v43.25H652.63V243.05h37.91V329.3l-2,31.57Z"/><path class="cls-1" d="M926.47,366.71q0,33.93-17.9,53.07t-49.84,19.14q-20,0-35.3-8.76A58.3,58.3,0,0,1,799.94,405q-8.21-16.39-8.2-38.28,0-34.05,17.77-52.94t50-18.89q20,0,35.29,8.7a57.93,57.93,0,0,1,23.49,25Q926.47,344.84,926.47,366.71Zm-96.08,0q0,20.64,6.78,31.2t22.06,10.56q15.16,0,21.81-10.5t6.65-31.26q0-20.62-6.71-30.94t-22-10.32q-15.16,0-21.87,10.25T830.39,366.71Z"/><path class="cls-1" d="M1074.65,297.49v19.26l-21.75,5.59a38,38,0,0,1,6,20.88q0,22.38-15.6,34.87T1000,390.58l-6.84-.38-5.59-.62q-5.84,4.49-5.84,9.95,0,8.19,20.88,8.2h23.62q22.86,0,34.86,9.82t12,28.83q0,24.36-20.32,37.79t-58.35,13.42q-29.08,0-44.44-10.13t-15.34-28.4q0-12.56,7.83-21t23-12.05a25.35,25.35,0,0,1-10.19-8.14,20,20,0,0,1,.25-25.23q4.59-5.28,13.29-10.38a37.25,37.25,0,0,1-17.33-15.16q-6.4-10.44-6.4-24.61,0-22.75,14.79-35.18t42.25-12.42a108.7,108.7,0,0,1,13.86,1.05c5.35.71,8.76,1.22,10.26,1.56ZM967.39,456.08q0,7.83,7.52,12.3T996,472.85q20.38,0,32-5.59T1039.47,452q0-7.83-6.83-10.81t-21.13-3H991.87q-10.44,0-17.46,4.91T967.39,456.08ZM981.18,343q0,11.31,5.16,17.9t15.72,6.59q10.7,0,15.66-6.59t5-17.9q0-25.1-20.63-25.1Q981.18,317.87,981.18,343Z"/><path class="cls-1" d="M1194.05,395.18q0,21.38-14.85,32.56t-44.43,11.18a139.24,139.24,0,0,1-25.85-2.05,97.54,97.54,0,0,1-20-6V399.53a132.07,132.07,0,0,0,23.81,8.32,96.21,96.21,0,0,0,23.3,3.36q20.63,0,20.63-11.93a10,10,0,0,0-2.73-7.27c-1.83-1.87-5-4-9.45-6.34s-10.44-5.12-17.9-8.27q-16-6.7-23.55-12.43a35,35,0,0,1-10.94-13.11q-3.42-7.39-3.41-18.21,0-18.51,14.35-28.64t40.71-10.13a115.57,115.57,0,0,1,48.84,10.93l-11.43,27.35q-10.44-4.49-19.52-7.34a61.46,61.46,0,0,0-18.52-2.86q-16.77,0-16.77,9.08c0,3.39,1.8,6.34,5.4,8.82s11.5,6.17,23.68,11.06q16.27,6.58,23.86,12.31a36.51,36.51,0,0,1,11.19,13.17A40.54,40.54,0,0,1,1194.05,395.18Z"/><path class="cls-1" d="M1300,326H1267.2V436.44h-37.91V326h-20.88V307.68l20.88-10.19v-10.2q0-23.73,11.68-34.67t37.41-10.94q19.63,0,34.93,5.84l-9.7,27.84a70.69,70.69,0,0,0-21.13-3.6q-8.07,0-11.68,4.78t-3.6,12.25v8.7H1300Z"/><path class="cls-1" d="M1445.24,366.71q0,33.93-17.9,53.07t-49.84,19.14q-20,0-35.3-8.76A58.3,58.3,0,0,1,1318.71,405q-8.2-16.39-8.2-38.28,0-34.05,17.77-52.94t50-18.89q20,0,35.29,8.7a58.05,58.05,0,0,1,23.49,25Q1445.24,344.84,1445.24,366.71Zm-110-104.89q0-8.08,4.66-12.43t12.62-4.35q8.2,0,12.86,4.6t4.66,12.18q0,7.46-4.72,12t-12.8,4.54q-7.95,0-12.62-4.35T1335.24,261.82Zm13.92,104.89q0,20.64,6.78,31.2T1378,408.47q15.16,0,21.81-10.5t6.65-31.26q0-20.62-6.71-30.94t-22-10.32q-15.16,0-21.88,10.25T1349.16,366.71Zm36.17-104.89q0-8.7,5-12.74a19.29,19.29,0,0,1,12.49-4q8.09,0,12.87,4.47t4.78,12.31q0,7.57-4.84,12.05c-3.24,3-7.5,4.48-12.81,4.48a19.35,19.35,0,0,1-12.49-4Q1385.34,270.26,1385.33,261.82Z"/><path class="cls-1" d="M1549.3,294.88a61.58,61.58,0,0,1,12.8,1.11l-2.86,35.55a43.3,43.3,0,0,0-11.18-1.24q-18.15,0-28.28,9.32t-10.13,26.1v70.72h-37.91V297.49h28.72l5.59,23.36h1.86A52.3,52.3,0,0,1,1525.37,302,43.11,43.11,0,0,1,1549.3,294.88Z"/><path class="cls-1" d="M1645.23,438.92q-33.56,0-52.45-18.51T1573.89,368q0-34.93,17.46-54t48.29-19.07q29.46,0,45.86,16.77T1701.91,358v18.4H1612.3q.62,16.15,9.57,25.23t25.1,9.07a104.24,104.24,0,0,0,23.74-2.61,118.22,118.22,0,0,0,23.37-8.33v29.34a89,89,0,0,1-21.26,7.39A133.67,133.67,0,0,1,1645.23,438.92Zm-5.34-117.07q-12.06,0-18.89,7.64t-7.83,21.69h53.19q-.25-14.06-7.33-21.69T1639.89,321.85Z"/><path class="cls-1" d="M1788,408.72q9.94,0,23.86-4.35v28.22q-14.16,6.33-34.8,6.33-22.74,0-33.12-11.49t-10.38-34.49V326h-18.14v-16l20.88-12.67,10.93-29.33h24.24v29.58h38.9V326h-38.9v67q0,8.07,4.54,11.93T1788,408.72Z"/><path class="cls-1" d="M1926.22,436.44l-7.33-18.89h-1q-9.59,12-19.7,16.71t-26.41,4.66q-20,0-31.51-11.43t-11.5-32.56q0-22.12,15.48-32.63t46.67-11.62l24.11-.75v-6.09q0-21.12-21.63-21.12-16.65,0-39.15,10.06l-12.55-25.6q24-12.56,53.19-12.55,28,0,42.88,12.18t14.92,37v92.6ZM1915,372.06l-14.67.5q-16.53.49-24.61,6t-8.08,16.66q0,16,18.4,16,13.17,0,21.07-7.58t7.89-20.14Z"/><path class="cls-1" d="M2108.28,297.49v19.26l-21.75,5.59a38,38,0,0,1,6,20.88q0,22.38-15.6,34.87t-43.31,12.49l-6.84-.38-5.59-.62q-5.85,4.49-5.84,9.95,0,8.19,20.88,8.2h23.61q22.88,0,34.87,9.82t12,28.83q0,24.36-20.32,37.79T2028,497.59q-29.09,0-44.44-10.13t-15.35-28.4q0-12.56,7.83-21T1999,426a25.35,25.35,0,0,1-10.19-8.14,20,20,0,0,1,.24-25.23,53.36,53.36,0,0,1,13.3-10.38A37.32,37.32,0,0,1,1985,367.09q-6.39-10.44-6.4-24.61,0-22.75,14.79-35.18t42.26-12.42a108.7,108.7,0,0,1,13.86,1.05c5.34.71,8.76,1.22,10.25,1.56ZM2001,456.08q0,7.83,7.51,12.3t21.07,4.47q20.39,0,31.94-5.59T2073.1,452q0-7.83-6.83-10.81t-21.13-3H2025.5q-10.44,0-17.46,4.91T2001,456.08ZM2014.81,343q0,11.31,5.16,17.9t15.72,6.59q10.69,0,15.66-6.59t5-17.9q0-25.1-20.63-25.1Q2014.81,317.87,2014.81,343Z"/><path class="cls-1" d="M2188.41,438.92q-33.55,0-52.45-18.51T2117.07,368q0-34.93,17.46-54t48.28-19.07q29.46,0,45.87,16.77t16.4,46.36v18.4h-89.61q.63,16.15,9.57,25.23t25.11,9.07a104.24,104.24,0,0,0,23.74-2.61,118.37,118.37,0,0,0,23.36-8.33v29.34A88.94,88.94,0,0,1,2216,436.5,133.74,133.74,0,0,1,2188.41,438.92Zm-5.35-117.07q-12,0-18.89,7.64t-7.83,21.69h53.2q-.26-14.06-7.34-21.69T2183.06,321.85Z"/><path class="cls-1" d="M2331.14,408.72q9.95,0,23.86-4.35v28.22q-14.17,6.33-34.8,6.33-22.74,0-33.12-11.49t-10.38-34.49V326h-18.15v-16l20.88-12.67,10.94-29.33h24.24v29.58h38.9V326h-38.9v67q0,8.07,4.53,11.93T2331.14,408.72Z"/><path class="cls-1" d="M6.4,486.47H876.69c9.66,0,9.67-15,0-15H6.4c-9.65,0-9.67,15,0,15Z"/></svg>